<?xml version="1.0" encoding="UTF-8"?>
<svg version="1.1" xmlns="http://www.w3.org/2000/svg" width="512" height="512">
<path d="M0 0 C1.25987228 -0.01051392 1.25987228 -0.01051392 2.54519653 -0.02124023 C5.31220942 -0.03879213 8.07819213 -0.02720123 10.84521484 -0.01367188 C12.7808756 -0.01636911 14.71653503 -0.02025346 16.65219116 -0.02526855 C20.70901388 -0.0311611 24.76548397 -0.02261409 28.82226562 -0.00390625 C33.99350673 0.01879152 39.16391312 0.00581702 44.33512306 -0.01819611 C48.33489113 -0.03273905 52.33446565 -0.02800783 56.33423996 -0.01768494 C58.23900834 -0.01503628 60.14379491 -0.01822108 62.04854202 -0.02760315 C74.74941611 -0.07640493 86.67065889 0.20879256 97.24365234 8.26757812 C98.07509766 8.88117188 98.90654297 9.49476562 99.76318359 10.12695312 C106.77201817 16.40719728 111.2540955 23.25752153 115.55615234 31.58007812 C116.68828949 33.72174961 117.82245821 35.86234821 118.95849609 38.00195312 C119.53196777 39.08541016 120.10543945 40.16886719 120.69628906 41.28515625 C123.41507893 46.35084411 126.26561289 51.33916224 129.11865234 56.33007812 C133.44137251 63.9175862 137.60241089 71.56458954 141.62329102 79.31567383 C144.91870571 85.63149876 148.40310895 91.82917718 151.93115234 98.01757812 C156.31634871 105.70947709 160.54594827 113.45528307 164.62255859 121.31445312 C167.91839653 127.6305927 171.40287209 133.82876171 174.93115234 140.01757812 C179.31634871 147.70947709 183.54594827 155.45528307 187.62255859 163.31445312 C190.91839653 169.6305927 194.40287209 175.82876171 197.93115234 182.01757812 C202.31634871 189.70947709 206.54594827 197.45528307 210.62255859 205.31445312 C213.91841845 211.63063471 217.40385875 217.82816649 220.93115234 224.01757812 C225.04137405 231.25183405 229.12433948 238.49698188 233.05615234 245.83007812 C233.45769531 246.56355469 233.85923828 247.29703125 234.27294922 248.05273438 C238.66093727 256.33024711 240.96300763 264.38619616 240.93115234 273.76757812 C240.95951172 274.51136719 240.98787109 275.25515625 241.01708984 276.02148438 C241.05874783 288.41473502 234.65688015 299.63361754 228.61865234 310.08007812 C227.63086314 311.82187853 226.64310639 313.56369794 225.65687561 315.30638123 C224.97268541 316.51401772 224.28707667 317.7208516 223.6000824 318.92689514 C221.06215884 323.38398848 218.57105613 327.86519068 216.10302734 332.36132812 C215.56969536 333.33258888 215.56969536 333.33258888 215.02558899 334.32347107 C213.63788627 336.85217512 212.25122391 339.3814464 210.86581421 341.91140747 C198.11655771 365.17487544 198.11655771 365.17487544 191.43115234 368.51757812 C186.02658934 369.01110858 181.09421022 369.22591759 176.05615234 367.08007812 C169.22137793 360.40803644 164.97493924 351.31419863 160.43115234 343.01757812 C159.7735065 341.82411914 159.11537516 340.63092758 158.45678711 339.43798828 C157.44352571 337.60259997 156.43048784 335.7670941 155.4188385 333.93081665 C152.09700465 327.90223463 148.7363281 321.89566039 145.36865234 315.89257812 C143.63232422 312.79492188 143.63232422 312.79492188 141.89599609 309.69726562 C141.32478027 308.67858398 140.75356445 307.65990234 140.16503906 306.61035156 C136.66704328 300.3708964 133.17329265 294.12906303 129.67871094 287.88769531 C126.77594257 282.70366014 123.87221876 277.5201654 120.96630859 272.33789062 C114.91055148 261.53554501 108.8750636 250.72244799 102.86865234 239.89257812 C98.25817555 231.58058261 93.6188556 223.28626589 88.93115234 215.01757812 C83.59723805 205.60903209 78.33247315 196.16340253 73.08740234 186.70507812 C68.88697009 179.13222491 64.66726638 171.57052516 60.43115234 164.01757812 C55.55409822 155.3218416 50.70379339 146.61168493 45.86865234 137.89257812 C41.25822518 129.58055543 36.61885532 121.28626539 31.93115234 113.01757812 C26.59804423 103.61045414 21.33438173 94.16608583 16.08959961 84.70947266 C11.86549797 77.09469521 7.62499165 69.48938105 3.36865234 61.89257812 C2.52137573 60.37821167 2.52137573 60.37821167 1.65698242 58.83325195 C-1.04918402 53.99946284 -3.76263236 49.17010861 -6.49705505 44.35223389 C-7.47633603 42.62589733 -8.45314754 40.8981607 -9.42993164 39.17041016 C-10.658196 36.99836506 -11.8905621 34.82863258 -13.12768555 32.66162109 C-13.68061279 31.68209473 -14.23354004 30.70256836 -14.80322266 29.69335938 C-15.5336377 28.40812378 -15.5336377 28.40812378 -16.27880859 27.09692383 C-19.18124134 21.29370621 -20.28102327 16.76639425 -18.56884766 10.51757812 C-14.30997345 2.31530187 -8.75526388 -0.090602 0 0 Z M25.43115234 32.51757812 C29.54262887 40.88421999 33.78196169 49.12069349 38.43115234 57.20507812 C39.57007176 59.20326414 40.70805374 61.20198469 41.84521484 63.20117188 C42.43206055 64.23226074 43.01890625 65.26334961 43.62353516 66.32568359 C46.7170279 71.78818011 49.76176684 77.27760506 52.80615234 82.76757812 C53.43199219 83.89574951 54.05783203 85.0239209 54.70263672 86.1862793 C55.97663923 88.48342839 57.25040156 90.78071071 58.52392578 93.078125 C61.65608648 98.72659914 64.79383668 104.37196609 67.93115234 110.01757812 C71.69432506 116.79020948 75.45680384 123.56322235 79.21630859 130.33789062 C85.26859964 141.24201829 91.33219541 152.13947234 97.43115234 163.01757812 C105.43850956 177.29950858 113.38230052 191.61655614 121.32666016 205.93359375 C128.58030907 219.00437731 135.85048062 232.06541958 143.16186523 245.10400391 C147.43685401 252.73160713 151.68831852 260.3720485 155.93115234 268.01757812 C160.9194108 277.00332101 165.91564299 285.98451231 170.93115234 294.95507812 C171.48222656 295.9425 172.03330078 296.92992187 172.60107422 297.94726562 C176.4651322 304.85104921 180.42503508 311.69531659 184.43115234 318.51757812 C187.49620126 315.85971175 189.14730864 312.696042 191.08349609 309.16210938 C191.59560387 308.23140877 191.59560387 308.23140877 192.11805725 307.28190613 C192.83901125 305.96945184 193.55750002 304.65564074 194.27368164 303.34057617 C195.35682963 301.35178605 196.44695754 299.36696458 197.53857422 297.3828125 C198.922021 294.86512108 200.29141191 292.34058183 201.64941406 289.80908203 C202.67787961 287.9091406 203.7260919 286.01906111 204.82617188 284.15966797 C207.79587379 278.95647822 208.5132963 274.3469139 207.43115234 268.51757812 C205.91222946 264.55564255 203.88625442 260.98537241 201.74365234 257.33007812 C201.15495361 256.2854541 200.56625488 255.24083008 199.9597168 254.16455078 C198.13631314 250.93735215 196.28568594 247.72696536 194.43115234 244.51757812 C192.8428409 241.73067541 191.26068966 238.94036245 189.67993164 236.14916992 C188.62909409 234.29381311 187.57582484 232.4398317 186.52026367 230.5871582 C181.64848676 222.00189345 177.01990528 213.29525848 172.4012146 204.57244873 C168.02771521 196.31781435 163.57011521 188.12726357 158.93115234 180.01757812 C153.50005648 170.52144855 148.32684572 160.90286055 143.20126343 151.2399292 C138.90587798 143.14251031 134.56932216 135.07460744 130.08666992 127.07885742 C126.64074821 120.92434466 123.28238368 114.72408179 119.93115234 108.51757812 C115.81713235 100.90313655 111.67567103 93.30662075 107.45727539 85.74951172 C104.78954118 80.96859928 102.13996298 76.17796387 99.50146484 71.38085938 C99.15229507 70.74640396 98.80312531 70.11194855 98.44337463 69.45826721 C95.57462818 64.24561851 95.57462818 64.24561851 94.22470093 61.78604126 C90.73841677 55.43451963 87.22706598 49.09695858 83.63818359 42.80273438 C82.82377808 41.37006226 82.82377808 41.37006226 81.99291992 39.90844727 C79.45356421 36.02101401 76.89917152 34.2117545 72.38354492 32.94165039 C68.02690948 32.31587715 63.71323519 32.39570154 59.31787109 32.41992188 C57.86354424 32.4220443 57.86354424 32.4220443 56.37983704 32.42420959 C53.29274367 32.429793 50.20572367 32.44234248 47.11865234 32.45507812 C45.02164819 32.46009527 42.92464289 32.4646578 40.82763672 32.46875 C35.69544713 32.479757 30.56331216 32.49701025 25.43115234 32.51757812 Z " fill="#7EFFD4" transform="translate(223.56884765625,79.482421875)"/>
<path d="M0 0 C1.00474147 -0.00623996 2.00948294 -0.01247993 3.04467112 -0.01890898 C6.40954153 -0.03485664 9.77368934 -0.02222726 13.13856506 -0.00964355 C15.55171125 -0.01506389 17.96485412 -0.02218605 20.37799072 -0.03088379 C26.25106771 -0.04723623 32.12395723 -0.04483367 37.997029 -0.03323323 C42.77134737 -0.02419408 47.54560846 -0.02297698 52.31993294 -0.02732849 C53.33979024 -0.02824789 53.33979024 -0.02824789 54.38025071 -0.02918586 C55.7615434 -0.03046479 57.14283608 -0.03176164 58.52412874 -0.03307623 C71.47301017 -0.04447912 84.42177828 -0.03137337 97.37064112 -0.00987476 C108.47563087 0.00799196 119.58045334 0.00489513 130.68544006 -0.0135498 C143.58690839 -0.03496865 156.4882774 -0.04337627 169.38976103 -0.03110075 C170.76623474 -0.02982658 172.14270847 -0.0285691 173.51918221 -0.02732849 C174.53500653 -0.02640284 174.53500653 -0.02640284 175.57135255 -0.02545848 C180.3381092 -0.02200831 185.10480273 -0.02782681 189.87154961 -0.0372467 C196.2910285 -0.04965399 202.71026601 -0.04078666 209.12971687 -0.01766968 C211.48594768 -0.01238015 213.84220506 -0.01390048 216.19842529 -0.02272034 C219.41462494 -0.03364935 222.62981214 -0.01994289 225.84594727 0 C226.77863794 -0.00892289 227.71132861 -0.01784577 228.67228264 -0.02703905 C234.61681089 0.04446776 238.1002452 1.07121805 242.98646545 4.50793457 C246.30984656 8.47266992 247.6784835 13.36131634 247.3653717 18.49230957 C246.34249324 23.93360119 244.54357133 27.44085515 239.94231319 30.59408188 C235.6671952 32.96092303 231.94013773 33.05889327 227.13430786 32.98895264 C226.26669734 32.99237034 225.39908682 32.99578804 224.50518507 32.9993093 C221.61066494 33.00587501 218.71708116 32.98393385 215.82264709 32.96203613 C213.74282351 32.96090737 211.66299832 32.96154207 209.58317566 32.96380615 C203.94520022 32.9649531 198.30756566 32.94144652 192.66966939 32.91351032 C186.77467025 32.88849372 180.87966317 32.88615445 174.98461914 32.88140869 C163.82520566 32.86897972 152.66594904 32.83615901 141.50660461 32.79601073 C128.80053929 32.75129072 116.09446646 32.72930538 103.38834202 32.70922899 C77.25429622 32.66742644 51.12038963 32.59707575 24.98646545 32.50793457 C25.41140289 33.24351089 25.83634033 33.97908722 26.27415466 34.73695374 C27.87850024 37.51458862 29.48245696 40.29244761 31.08616638 43.07044983 C31.77510204 44.26367275 32.46418441 45.45681098 33.15342712 46.64985657 C43.01885643 63.72705377 43.01885643 63.72705377 46.74427795 70.50708008 C48.97611506 74.3906261 50.86175574 76.68671659 54.98646545 78.50793457 C59.62910713 79.7519331 64.20653304 79.64911322 68.9753418 79.63923645 C70.33522283 79.64241002 70.33522283 79.64241002 71.7225762 79.6456477 C74.76099088 79.65164015 77.79936394 79.6506481 80.83778381 79.64978027 C83.01595124 79.65281221 85.19411803 79.65633376 87.37228394 79.66030884 C92.06326302 79.66819457 96.75423451 79.67334148 101.44521904 79.6765995 C108.86138105 79.6825097 116.27749509 79.69904938 123.69363403 79.71794128 C126.23235604 79.72427849 128.77107808 79.73060412 131.30980015 79.73691845 C133.216757 79.74166717 133.216757 79.74166717 135.16223824 79.74651182 C152.42810861 79.78859956 169.69393967 79.82157654 186.95985413 79.8338623 C198.60661897 79.84223485 210.25326481 79.86469376 221.89997011 79.90321797 C228.06383366 79.923002 234.22751921 79.93537528 240.39141655 79.93038368 C246.18713495 79.9257472 251.98251554 79.93948816 257.77816582 79.96739578 C259.90582673 79.97432376 262.03352246 79.97441695 264.1611824 79.96719551 C267.06472741 79.95833538 269.96715159 79.97395516 272.87060547 79.99568176 C274.13495978 79.98301796 274.13495978 79.98301796 275.4248566 79.97009832 C280.75283218 80.04387541 283.7396834 81.00959324 287.98646545 84.50793457 C291.61480209 88.32723629 292.29647004 91.39072463 292.48646545 96.50793457 C292.29647004 101.62514451 291.61480209 104.68863285 287.98646545 108.50793457 C282.82548021 112.79047805 278.99083741 113.0814235 272.57603455 113.01586914 C271.63607419 113.0221091 270.69611384 113.02834907 269.72766984 113.03477812 C266.58174537 113.05071731 263.43659473 113.03809968 260.29066467 113.0255127 C258.03341215 113.0309336 255.77616317 113.03805608 253.5189209 113.04675293 C247.38841258 113.06499899 241.25817334 113.05791161 235.12766027 113.04523659 C228.70706298 113.03510822 222.2864887 113.04450252 215.8658905 113.05078125 C204.38571928 113.05852766 192.90569689 113.04609008 181.42555083 113.0257439 C171.03563871 113.00789889 160.64590554 113.0109559 150.2559967 113.02941895 C138.17666745 113.05087423 126.09747328 113.05876505 114.01811802 113.04696989 C107.62939927 113.04074689 101.2408035 113.03986589 94.85209274 113.05311584 C88.83884812 113.06471519 82.82593934 113.05657377 76.81273079 113.03353882 C74.61179345 113.02827213 72.41082762 113.02973032 70.20990181 113.03858948 C54.18269082 113.09712729 41.84922658 112.00952451 28.98646545 101.50793457 C28.3728717 101.01937988 27.75927795 100.5308252 27.12709045 100.02746582 C20.85368352 94.43032064 17.1006848 86.71814314 12.98646545 79.50793457 C11.87150203 77.57120557 10.75554988 75.63504558 9.6388092 73.69934082 C7.76278771 70.44735278 5.88771254 67.19485515 4.01698303 63.93981934 C-1.53756804 54.28725009 -7.20330207 44.70290521 -12.91026306 35.13977051 C-13.54891296 34.06759277 -14.18756287 32.99541504 -14.8455658 31.89074707 C-15.40993347 30.94602539 -15.97430115 30.00130371 -16.55577087 29.0279541 C-20.2225787 22.68918498 -20.80242512 17.86433913 -20.01353455 10.50793457 C-15.81986946 1.47542515 -9.12590966 -0.08709765 0 0 Z " fill="#7EFFD4" transform="translate(68.01353454589844,335.4920654296875)"/>
<path d="M0 0 C7.28202165 5.1783265 11.24571239 14.02344602 15.4375 21.6875 C16.68153138 23.93531678 17.9263345 26.18270659 19.171875 28.4296875 C19.78740234 29.54311523 20.40292969 30.65654297 21.03710938 31.80371094 C23.55017572 36.32805976 26.11257484 40.82314711 28.6875 45.3125 C29.16541992 46.1470874 29.64333984 46.9816748 30.13574219 47.84155273 C31.69380723 50.56152562 33.25311821 53.28078182 34.8125 56 C37.4392792 60.58231657 40.0644353 65.1655565 42.6875 69.75 C43.02696655 70.34313995 43.36643311 70.93627991 43.71618652 71.5473938 C48.50651985 79.92081576 53.2416783 88.32309717 57.9375 96.75 C62.45020841 104.84724851 67.0542085 112.8825981 71.75 120.875 C76.98611123 129.79376573 82.09541487 138.7762244 87.125 147.8125 C87.45595673 148.40520691 87.78691345 148.99791382 88.12789917 149.60858154 C89.06347135 151.28559197 89.99472347 152.96501028 90.92578125 154.64453125 C91.45985596 155.60721924 91.99393066 156.56990723 92.54418945 157.56176758 C94.8609246 162.01551808 95.32061563 166.05057736 94.8125 171 C92.80953332 176.67507225 89.19899821 180.30675089 83.8125 183 C81.40791858 183.10184843 79.03204266 183.14339355 76.62701416 183.14044189 C75.87816507 183.14341302 75.12931598 183.14638414 74.3577745 183.1494453 C71.83518486 183.15815356 69.31264256 183.15964234 66.79003906 183.16113281 C64.9866933 183.16575954 63.18334852 183.170784 61.38000488 183.17617798 C56.47078648 183.18931926 51.56158177 183.19575046 46.65234852 183.20018864 C43.58652626 183.20311698 40.52070776 183.20722136 37.45488739 183.21169281 C27.86645978 183.22537317 18.27804074 183.23503682 8.68960404 183.2388947 C-2.38558898 183.24337496 -13.46065856 183.26091911 -24.53581405 183.2898953 C-33.09129393 183.31150339 -41.64673907 183.32159854 -50.20224595 183.32293582 C-55.31427897 183.3239846 -60.42619604 183.32990784 -65.53820038 183.34775543 C-70.34805367 183.3642207 -75.15770366 183.36639911 -79.96757507 183.35761642 C-81.73242486 183.35684518 -83.49728551 183.36120022 -85.26210785 183.37107468 C-87.67300756 183.38377214 -90.08318487 183.37792963 -92.49407959 183.36749268 C-93.53971939 183.37957728 -93.53971939 183.37957728 -94.60648322 183.39190602 C-99.18779862 183.34557778 -102.28725257 182.38354949 -106.1875 180 C-109.59393897 176.40431442 -112.03327008 173.05293281 -112.28857422 167.99926758 C-111.90804574 159.77012588 -108.17642743 153.77942949 -104 146.875 C-103.26919487 145.63659273 -102.54013648 144.39715317 -101.81274414 143.15673828 C-100.33071873 140.63532036 -98.83927466 138.11989682 -97.33886719 135.609375 C-94.79838415 131.35575307 -92.30799997 127.0735111 -89.8190918 122.78955078 C-88.11272044 119.85387398 -86.39877533 116.92272408 -84.68359375 113.9921875 C-80.99252101 107.67623623 -77.33833684 101.33927005 -73.6875 95 C-68.30712418 85.65904088 -62.89310839 76.33854067 -57.45263672 67.0324707 C-53.83935528 60.84673952 -50.2515068 54.64702319 -46.68139648 48.4362793 C-44.18340271 44.09391441 -41.67549311 39.75732879 -39.16552734 35.421875 C-37.79524563 33.05136543 -36.42812259 30.67926618 -35.06494141 28.3046875 C-33.27680071 25.19151751 -31.47650762 22.08564935 -29.668396 18.98403931 C-28.65146329 17.233065 -27.64612535 15.47537283 -26.64111328 13.7175293 C-20.25991503 2.81720623 -13.31033454 -4.17579123 0 0 Z M-9.1875 49 C-9.7136792 49.94746094 -9.7136792 49.94746094 -10.25048828 50.9140625 C-17.30644475 63.60426993 -24.44381155 76.23509998 -31.79125977 88.75927734 C-36.68015629 97.10167355 -41.47883951 105.49369483 -46.25872803 113.89877319 C-51.51809427 123.1432501 -56.88090749 132.32151574 -62.37915039 141.42626953 C-63.1350647 142.68866455 -63.1350647 142.68866455 -63.90625 143.9765625 C-64.34904297 144.70955566 -64.79183594 145.44254883 -65.24804688 146.19775391 C-66.34157918 147.9568515 -66.34157918 147.9568515 -66.1875 150 C-28.2375 150 9.7125 150 48.8125 150 C44.4983232 141.3716464 40.23316271 133.05389064 35.3125 124.8125 C30.17629789 116.11364637 25.18929184 107.3468052 20.3125 98.5 C13.87141349 86.82888543 7.23207701 75.28534793 0.45703125 63.80517578 C-0.74341919 61.75749532 -1.93189545 59.70278145 -3.11328125 57.64404297 C-3.74621094 56.54334473 -4.37914062 55.44264648 -5.03125 54.30859375 C-5.61068359 53.29466553 -6.19011719 52.2807373 -6.78710938 51.23608398 C-7.24923828 50.49817627 -7.71136719 49.76026855 -8.1875 49 C-8.5175 49 -8.8475 49 -9.1875 49 Z " fill="#7EFFD4" transform="translate(192.1875,132)"/>
</svg>
