<?xml version="1.0" encoding="UTF-8"?>
<svg version="1.1" xmlns="http://www.w3.org/2000/svg" width="512" height="512">
<path d="M0 0 C1.14130371 0.55228271 1.14130371 0.55228271 2.30566406 1.11572266 C22.51302781 11.00185113 40.21118357 23.8719839 56.7890625 39.01171875 C58.55080083 40.5960382 60.33088787 42.09390998 62.1875 43.5625 C65.11578078 46.10034334 67.53780834 48.78529804 70.0390625 51.734375 C71.39273918 53.29838392 72.78654509 54.82823476 74.2109375 56.328125 C85.41777617 68.15152114 95.03857902 81.80178062 103 96 C103.44698242 96.79438477 103.89396484 97.58876953 104.35449219 98.40722656 C135.1809554 153.82170591 143.66200464 219.61965868 127 281 C122.81269676 295.46966551 117.6225571 309.47084836 111 323 C110.62117676 323.77682129 110.24235352 324.55364258 109.85205078 325.35400391 C104.14448115 336.92112679 97.63894881 347.61302819 90 358 C89.5771875 358.57975586 89.154375 359.15951172 88.71875 359.75683594 C83.3783352 367.0373233 77.63318025 373.77703321 71.4453125 380.34375 C68.99291901 382.94245843 68.99291901 382.94245843 66.90234375 385.64453125 C65.18935351 387.7655438 63.51716122 389.44022524 61.4375 391.1875 C59.12748829 393.1512211 56.86686245 395.12644722 54.66796875 397.21484375 C42.84545831 408.41989589 29.19658427 418.03949588 15 426 C14.20561523 426.44698242 13.41123047 426.89396484 12.59277344 427.35449219 C-42.77150567 458.15302955 -108.69121331 466.59992685 -170 450 C-185.22649436 445.62803627 -199.78157647 439.96651683 -214 433 C-214.74330566 432.63793457 -215.48661133 432.27586914 -216.25244141 431.90283203 C-227.17032372 426.52248028 -237.18215477 420.18033061 -247 413 C-247.87398437 412.36360596 -247.87398437 412.36360596 -248.765625 411.71435547 C-256.04271862 406.37545565 -262.77969779 400.63066939 -269.34375 394.4453125 C-271.94245843 391.99291901 -271.94245843 391.99291901 -274.64453125 389.90234375 C-276.7655438 388.18935351 -278.44022524 386.51716122 -280.1875 384.4375 C-282.1512211 382.12748829 -284.12644722 379.86686245 -286.21484375 377.66796875 C-297.42502728 365.84004415 -307.01744145 352.19162487 -315 338 C-315.41459473 337.26507324 -315.82918945 336.53014648 -316.25634766 335.77294922 C-347.20519424 280.27884971 -355.69772634 214.51193473 -339 153 C-334.81172228 138.52696704 -329.61194415 124.53687974 -323 111 C-322.44771729 109.85869629 -322.44771729 109.85869629 -321.88427734 108.69433594 C-311.99814887 88.48697219 -299.1280161 70.78881643 -283.98828125 54.2109375 C-282.4039618 52.44919917 -280.90609002 50.66911213 -279.4375 48.8125 C-276.90295459 45.88802453 -274.22104125 43.46842609 -271.27734375 40.96875 C-268.76376369 38.79577513 -266.35951004 36.52445817 -263.9375 34.25 C-193.51885843 -29.76694688 -84.37056261 -41.20989908 0 0 Z " fill="#FAA940" transform="translate(362,39)"/>
<path d="M0 0 C2.83886719 1.34423828 2.83886719 1.34423828 5.796875 3.0703125 C6.90708008 3.71178223 8.01728516 4.35325195 9.16113281 5.01416016 C10.35751039 5.71762291 11.5537971 6.42124025 12.75 7.125 C14.00046568 7.8516286 15.25145094 8.5773637 16.50292969 9.30224609 C19.07886099 10.79589166 21.65187591 12.29438194 24.22265625 13.796875 C28.81629391 16.47971872 33.42884198 19.12911926 38.04125977 21.77954102 C42.2936168 24.2252206 46.53932534 26.68230678 50.78466797 29.14013672 C52.98315612 30.41182106 55.18275329 31.68158954 57.38330078 32.94970703 C60.69531726 34.8583831 64.00421609 36.77236337 67.3125 38.6875 C68.31506836 39.26387207 69.31763672 39.84024414 70.35058594 40.43408203 C71.28290039 40.97532715 72.21521484 41.51657227 73.17578125 42.07421875 C73.98958252 42.54432373 74.80338379 43.01442871 75.6418457 43.4987793 C76.42003662 43.99418213 77.19822754 44.48958496 78 45 C78.85996582 45.4976889 79.71993164 45.99537781 80.60595703 46.50814819 C84.15678641 50.20404702 83.71020936 53.41734022 83.6628418 58.37084961 C83.67320969 59.31925217 83.68357758 60.26765472 83.69425964 61.24479675 C83.72137252 64.38108547 83.71165837 67.51597994 83.69921875 70.65234375 C83.70512592 72.83183686 83.71237189 75.01132673 83.72090149 77.19081116 C83.73278999 81.75978493 83.72606063 86.32827182 83.70678711 90.8972168 C83.68390837 96.75326011 83.7106652 102.60785173 83.75184917 108.46375179 C83.77742231 112.96511199 83.77484838 117.46612471 83.76395607 121.9675312 C83.76246859 124.12650431 83.77016845 126.28550394 83.78720665 128.44441032 C83.80716514 131.4637545 83.78880304 134.48053024 83.76049805 137.49975586 C83.78107269 138.83792358 83.78107269 138.83792358 83.80206299 140.203125 C83.69112341 146.12285065 83.69112341 146.12285065 81.71336937 148.63294601 C78.53273542 151.34145105 74.83654632 153.41871241 71.203125 155.4609375 C70.09291992 156.0895166 68.98271484 156.7180957 67.83886719 157.36572266 C67.25472046 157.69276184 66.67057373 158.01980103 66.06872559 158.35675049 C64.20840886 159.39828563 62.35226417 160.44692836 60.49707031 161.49755859 C58.56956684 162.5890109 56.64182565 163.68001676 54.71282959 164.76882935 C48.36973247 168.34923573 42.05748642 171.98226343 35.75 175.625 C34.16928711 176.53366821 34.16928711 176.53366821 32.55664062 177.46069336 C27.09058376 180.60854148 21.65395131 183.79733423 16.25 187.05078125 C14.61272949 188.02893799 14.61272949 188.02893799 12.94238281 189.02685547 C10.8673778 190.26874819 8.79860515 191.52113525 6.73730469 192.78564453 C5.34366699 193.61684814 5.34366699 193.61684814 3.921875 194.46484375 C2.70902832 195.20142212 2.70902832 195.20142212 1.47167969 195.95288086 C-1.60025206 197.25429485 -3.68823217 197.34982704 -7 197 C-9.47167969 195.95288086 -9.47167969 195.95288086 -11.921875 194.46484375 C-12.85112793 193.91062744 -13.78038086 193.35641113 -14.73779297 192.78540039 C-15.73182129 192.17559326 -16.72584961 191.56578613 -17.75 190.9375 C-19.91352647 189.64233333 -22.07760792 188.34809337 -24.2421875 187.0546875 C-25.35819336 186.38276367 -26.47419922 185.71083984 -27.62402344 185.01855469 C-33.00385703 181.80185928 -38.43957761 178.68401135 -43.875 175.5625 C-46.03651749 174.31520668 -48.19797535 173.06781001 -50.359375 171.8203125 C-54.34907933 169.52130181 -58.34368452 167.23131405 -62.34506226 164.95271301 C-64.12570843 163.93818625 -65.90508187 162.92146264 -67.68408203 161.90405273 C-69.91170789 160.63092046 -72.14170622 159.36192665 -74.37451172 158.09790039 C-75.38787598 157.5177417 -76.40124023 156.93758301 -77.4453125 156.33984375 C-78.32719238 155.83831787 -79.20907227 155.33679199 -80.11767578 154.82006836 C-81.54442627 153.91913452 -81.54442627 153.91913452 -83 153 C-83.65893029 152.6197552 -84.31786058 152.2395104 -84.99675846 151.84774303 C-90.54513073 148.28953804 -90.54513073 148.28953804 -91.74094772 144.89943981 C-92.0199247 142.36465944 -92.04754029 139.93578109 -91.98754883 137.38623047 C-91.9967485 136.43592957 -92.00594818 135.48562866 -92.01542664 134.50653076 C-92.0352931 131.37543084 -91.99749536 128.24804411 -91.95703125 125.1171875 C-91.95480108 122.93816229 -91.95538576 120.75913253 -91.95866394 118.58010864 C-91.95692211 114.01855163 -91.92783349 109.45825429 -91.87817383 104.89697266 C-91.81573255 99.04766097 -91.81090825 93.20006499 -91.8251543 87.35049248 C-91.83156145 82.85340808 -91.81282285 78.35671234 -91.78589439 73.85971451 C-91.77500941 71.70274267 -91.77073967 69.54572703 -91.77317238 67.3887291 C-91.77174697 64.37665663 -91.73777908 61.36670537 -91.69458008 58.35498047 C-91.6999881 57.46241547 -91.70539612 56.56985046 -91.71096802 55.65023804 C-91.57514312 49.59810905 -91.57514312 49.59810905 -88.60021973 46.50439453 C-87.74214722 46.00794434 -86.88407471 45.51149414 -86 45 C-85.24162842 44.52965332 -84.48325684 44.05930664 -83.7019043 43.57470703 C-82.91726807 43.14013184 -82.13263184 42.70555664 -81.32421875 42.2578125 C-80.42662842 41.75652832 -79.52903809 41.25524414 -78.60424805 40.73876953 C-77.64172119 40.20622559 -76.67919434 39.67368164 -75.6875 39.125 C-67.47536028 34.53350434 -59.30533904 29.88131447 -51.1875 25.125 C-42.45431805 20.01211893 -33.70468738 14.92926196 -24.9375 9.875 C-23.84912842 9.2473877 -22.76075684 8.61977539 -21.6394043 7.97314453 C-19.63067787 6.81553063 -17.61937734 5.66236662 -15.60498047 4.51464844 C-14.02113976 3.59373487 -12.45234089 2.64532308 -10.91455078 1.64941406 C-6.76284412 -1.00486272 -4.72944646 -1.17406658 0 0 Z " fill="#FEFCF9" transform="translate(260,190)"/>
<path d="M0 0 C5.28525529 4.0116998 8.69950077 8.45676056 10 15 C10.0711484 17.08874957 10.09062367 19.17971059 10.06640625 21.26953125 C10.05202515 22.88178589 10.05202515 22.88178589 10.03735352 24.52661133 C10.02502686 25.34282959 10.0127002 26.15904785 10 27 C10.63164062 27.35078613 11.26328125 27.70157227 11.9140625 28.06298828 C23.60771303 34.56484332 35.26937794 41.10857779 46.8125 47.875 C55.29104973 52.84246112 63.78442595 57.78244343 72.30844116 62.67144775 C73.54970795 63.38391671 74.79030215 64.0975589 76.03018188 64.81243896 C77.76176169 65.81046615 79.49606567 66.80376229 81.23046875 67.796875 C82.22457764 68.36760742 83.21868652 68.93833984 84.24291992 69.52636719 C86.80117558 70.89373026 89.24383685 72.09461522 92 73 C94.16969804 72.20626514 94.16969804 72.20626514 96.0625 70.6875 C101.64017779 66.65610912 107.2246963 66.16522046 114 67 C121.48183501 69.34767257 126.01344201 73.33612263 130 80 C132.57471767 85.14943534 131.76493534 94.09761678 130.31640625 99.59375 C127.65943438 105.32663536 122.95593404 109.74085261 117 112 C116.01 112 115.02 112 114 112 C114.33 143.68 114.66 175.36 115 208 C117.64 209.32 120.28 210.64 123 212 C127.91437199 216.14197561 131.28031752 221.72188745 132.3515625 228.08984375 C132.7856394 234.58957418 130.60170755 239.66548101 127 245 C122.13906735 250.49597135 116.10672675 254.00451561 108.6875 254.5 C102.34180316 254.25093681 96.78209564 251.51822678 92.10546875 247.28515625 C86.32015611 240.85233903 85.48705457 234.99588862 85.62109375 226.453125 C86.32162549 220.06889763 89.36603595 216.2717507 94.0625 212.125 C99.76470588 208 99.76470588 208 104 208 C103.505 160.975 103.505 160.975 103 113 C99.7 111.35 96.4 109.7 93 108 C87.71558186 102.1493942 85.21959432 97.31868839 84.8125 89.3125 C84.96151512 86.67989946 85.20167158 84.49477633 86 82 C85.15953125 81.75636719 84.3190625 81.51273437 83.453125 81.26171875 C79.59275859 79.85120025 76.24185902 77.94014535 72.75 75.8125 C71.23381085 74.90501595 69.71683112 73.99885194 68.19921875 73.09375 C67.37083496 72.59875 66.54245117 72.10375 65.68896484 71.59375 C60.67332098 68.62097688 55.61580415 65.72062959 50.5625 62.8125 C49.47203369 62.1841626 48.38156738 61.5558252 47.25805664 60.90844727 C44.42468541 59.27587692 41.59099635 57.64385991 38.75720215 56.01202393 C33.97235217 53.25628938 29.18859829 50.49865379 24.40524292 47.74032593 C22.72489647 46.77156009 21.04421471 45.80337594 19.36352539 44.83520508 C18.3399292 44.24505615 17.31633301 43.65490723 16.26171875 43.046875 C15.36412842 42.52963867 14.46653809 42.01240234 13.54174805 41.47949219 C11.77508028 40.45115613 10.02809139 39.38856165 8.29785156 38.30004883 C6.1438685 36.8001747 6.1438685 36.8001747 3.97265625 37.15234375 C1.6864369 38.134739 -0.40836781 39.31686508 -2.5625 40.5625 C-8.1088906 43.37245341 -12.86568334 44.01476773 -19 43 C-22.94096411 41.62226458 -26.04529496 39.95470504 -29 37 C-32.38906749 37.38960574 -35.0777111 39.01288612 -38.015625 40.66796875 C-39.0068335 41.22411865 -39.99804199 41.78026855 -41.01928711 42.35327148 C-42.08542236 42.95856689 -43.15155762 43.5638623 -44.25 44.1875 C-45.36318604 44.815354 -46.47637207 45.44320801 -47.62329102 46.09008789 C-57.07267226 51.4360885 -66.45524391 56.89461446 -75.8203125 62.38671875 C-80.26335856 64.99039277 -84.71725612 67.57429613 -89.1796875 70.14453125 C-89.77715286 70.48866562 -90.37461823 70.83279999 -90.9901886 71.18736267 C-93.89675695 72.86080548 -96.80432705 74.53248184 -99.71264648 76.20288086 C-100.75235596 76.80108643 -101.79206543 77.39929199 -102.86328125 78.015625 C-104.24447144 78.80888184 -104.24447144 78.80888184 -105.65356445 79.61816406 C-107.47062767 80.68824811 -109.24541946 81.83027964 -111 83 C-111.3608179 86.27855307 -111.3608179 86.27855307 -111.3125 90.0625 C-111.56019175 97.10702139 -112.92259278 101.95527996 -118 107 C-121.54080405 109.82596248 -124.38903959 112 -129 112 C-128.67 143.68 -128.34 175.36 -128 208 C-125.36 209.32 -122.72 210.64 -120 212 C-117.9765625 213.78125 -117.9765625 213.78125 -116.625 215.5 C-116.16351563 216.0671875 -115.70203125 216.634375 -115.2265625 217.21875 C-110.94805719 223.43212076 -111.34709668 229.62797768 -112 237 C-113.64057175 243.24792595 -117.67225385 247.51689101 -123 251 C-128.01896313 253.66538122 -133.32235232 255.08787045 -139 254 C-146.66407853 251.32233281 -152.26504196 247.27233356 -156.02734375 240.01953125 C-158.4327909 234.28858112 -158.81367197 229.04061318 -156.9375 223.0625 C-154.44130463 217.01040368 -150.25618647 212.36222579 -144.6875 209 C-142 208 -142 208 -140 208 C-140.33 176.65 -140.66 145.3 -141 113 C-143.64 111.68 -146.28 110.36 -149 109 C-153.98445306 104.79895803 -157.36704791 99.16341821 -158.3515625 92.6875 C-158.75569659 85.88103114 -156.96733792 80.53138459 -153 75 C-147.77579656 69.90218858 -142.08468634 66.73205045 -134.6875 66.625 C-130.03025536 66.70021795 -126.83780289 67.55901591 -122.8515625 69.9296875 C-120.52452094 71.27485498 -118.61047852 72.27650791 -116 73 C-113.14882851 72.04484556 -113.14882851 72.04484556 -110.30078125 70.22265625 C-109.18751465 69.57159912 -108.07424805 68.92054199 -106.92724609 68.24975586 C-105.72219866 67.52088887 -104.51728687 66.7917976 -103.3125 66.0625 C-102.05657995 65.32051819 -100.7995632 64.58038984 -99.54150391 63.84204102 C-96.95078739 62.31881281 -94.36572254 60.78661084 -91.78466797 59.24707031 C-86.18520329 55.91304334 -80.52700128 52.68134022 -74.875 49.4375 C-72.75998605 48.21689169 -70.64540468 46.99553352 -68.53125 45.7734375 C-62.06981135 42.03976737 -55.60594934 38.31030932 -49.1416626 34.58157349 C-46.35217069 32.97249587 -43.56280911 31.36319238 -40.7734375 29.75390625 C-39.18229167 28.8359375 -37.59114583 27.91796875 -36 27 C-36.01740234 26.11231934 -36.03480469 25.22463867 -36.05273438 24.31005859 C-36.07303711 22.55943115 -36.07303711 22.55943115 -36.09375 20.7734375 C-36.11115234 19.61763184 -36.12855469 18.46182617 -36.14648438 17.27099609 C-35.84480621 10.53452262 -32.93647484 6.62308376 -28.125 2.125 C-20.10676542 -4.34559739 -9.03137155 -5.28391448 0 0 Z " fill="#FEFCF8" transform="translate(269,128)"/>
<path d="M0 0 C0.2086788 10.58746518 0.36851791 21.17444007 0.46630955 31.76354408 C0.51324995 36.68083025 0.57689459 41.59670808 0.67895508 46.51318359 C0.77686548 51.25953332 0.83058134 56.00453024 0.85389519 60.75181198 C0.87050464 62.56127602 0.90294238 64.37066724 0.95157051 66.17955399 C1.31689168 80.33397669 1.31689168 80.33397669 -1.87001038 84.36578369 C-4.19647406 85.95059656 -6.37531597 87.00078441 -9 88 C-9.96881104 88.57556641 -10.93762207 89.15113281 -11.93579102 89.74414062 C-12.78326904 90.21013672 -13.63074707 90.67613281 -14.50390625 91.15625 C-15.48012939 91.69693115 -16.45635254 92.2376123 -17.4621582 92.79467773 C-18.485271 93.35743408 -19.50838379 93.92019043 -20.5625 94.5 C-31.27671792 100.44470923 -41.88830423 106.54701273 -52.45703125 112.74609375 C-53.80015381 113.53282471 -53.80015381 113.53282471 -55.17041016 114.33544922 C-57.21574377 115.53864893 -59.25652688 116.74959548 -61.29443359 117.96533203 C-62.3767627 118.60712402 -63.4590918 119.24891602 -64.57421875 119.91015625 C-65.56381592 120.50062744 -66.55341309 121.09109863 -67.57299805 121.69946289 C-70 123 -70 123 -72 123 C-72.34836205 112.4650366 -72.61445816 101.93145275 -72.77718258 91.39189243 C-72.85531055 86.49689704 -72.96113338 81.6058543 -73.1315918 76.71313477 C-73.29524138 71.98597301 -73.38438203 67.26259616 -73.42315865 62.53281975 C-73.45076547 60.73381855 -73.5046915 58.93501326 -73.58595085 57.13763618 C-74.18023755 43.44105796 -74.18023755 43.44105796 -70.55665398 39.38398743 C-66.98910368 36.53067341 -63.07320374 34.6095994 -58.88567829 32.83356953 C-56.04074012 31.5759564 -53.42112756 29.97308226 -50.76171875 28.3671875 C-48.73772965 27.20182061 -46.71297533 26.03778183 -44.6875 24.875 C-42.45051938 23.58724212 -40.21354026 22.29948162 -37.9765625 21.01171875 C-36.243713 20.01524441 -34.51086291 19.0187711 -32.7779541 18.0223999 C-27.9484953 15.24525386 -23.12036079 12.46581269 -18.29336548 9.68438721 C-16.59215285 8.70457848 -14.89019904 7.72605702 -13.18823242 6.74755859 C-12.15802979 6.15410645 -11.12782715 5.5606543 -10.06640625 4.94921875 C-9.15834229 4.42674561 -8.25027832 3.90427246 -7.31469727 3.3659668 C-1.61090259 0 -1.61090259 0 0 0 Z " fill="#FAA941" transform="translate(333,250)"/>
<path d="M0 0 C4.71119424 2.49588082 9.31992626 5.12388616 13.8984375 7.85546875 C16.04910047 9.12434 18.20015614 10.39254584 20.3515625 11.66015625 C22.0231543 12.64773926 22.0231543 12.64773926 23.72851562 13.65527344 C29.34945473 16.96331327 34.99784787 20.22341093 40.6484375 23.48046875 C41.73398926 24.10663086 42.81954102 24.73279297 43.93798828 25.37792969 C52.30899175 30.19964811 60.71041313 34.96459867 69.1484375 39.66796875 C69.1484375 40.32796875 69.1484375 40.98796875 69.1484375 41.66796875 C68.57738281 41.98846191 68.00632812 42.30895508 67.41796875 42.63916016 C56.26288478 48.90613599 45.13751091 55.21993228 34.0859375 61.66796875 C32.61096802 62.52588013 32.61096802 62.52588013 31.10620117 63.40112305 C26.01130266 66.37394688 20.94901687 69.390399 15.921875 72.4765625 C14.920354 73.08564453 13.91883301 73.69472656 12.88696289 74.32226562 C10.98010718 75.48435775 9.08041222 76.65830802 7.18920898 77.84570312 C6.33657471 78.36326172 5.48394043 78.88082031 4.60546875 79.4140625 C3.86272705 79.87482178 3.11998535 80.33558105 2.35473633 80.81030273 C-0.5395879 81.93542844 -1.91009104 81.61827744 -4.8515625 80.66796875 C-6.78683392 79.71342208 -8.6844839 78.68087784 -10.55078125 77.59765625 C-12.22213135 76.63472656 -12.22213135 76.63472656 -13.92724609 75.65234375 C-15.13125353 74.94933629 -16.33519061 74.24620831 -17.5390625 73.54296875 C-18.78689025 72.82095418 -20.0351057 72.09960929 -21.28369141 71.37890625 C-23.86270136 69.8888281 -26.43938228 68.39483976 -29.01416016 66.89746094 C-32.66733408 64.77342347 -36.32661268 62.66013383 -39.98828125 60.55078125 C-44.36602084 58.02851988 -48.74245096 55.50402895 -53.1171875 52.9765625 C-59.68299508 49.18535901 -66.26213111 45.41795425 -72.8515625 41.66796875 C-72.8515625 41.00796875 -72.8515625 40.34796875 -72.8515625 39.66796875 C-71.81322266 39.0963501 -71.81322266 39.0963501 -70.75390625 38.51318359 C-58.21542061 31.60173573 -45.70926924 24.6494256 -33.3515625 17.41796875 C-32.37525879 16.84933105 -31.39895508 16.28069336 -30.39306641 15.69482422 C-25.67660758 12.94032359 -20.9903192 10.14831331 -16.34375 7.27734375 C-15.47814453 6.75172852 -14.61253906 6.22611328 -13.72070312 5.68457031 C-12.10736031 4.70355176 -10.50363783 3.70645608 -8.91210938 2.69042969 C-3.72995676 -0.43431003 -3.72995676 -0.43431003 0 0 Z " fill="#FAA941" transform="translate(257.8515625,200.33203125)"/>
<path d="M0 0 C3.47412881 0.79554697 6.14559302 2.05189393 9.26171875 3.80859375 C10.28918213 4.38544922 11.31664551 4.96230469 12.37524414 5.55664062 C13.46828857 6.17732422 14.56133301 6.79800781 15.6875 7.4375 C16.81728271 8.07494141 17.94706543 8.71238281 19.11108398 9.36914062 C26.62042422 13.61771258 34.08623126 17.93353688 41.50390625 22.33984375 C45.10424258 24.47725543 48.72004738 26.5871222 52.33984375 28.69140625 C53.44062256 29.33142578 54.54140137 29.97144531 55.67553711 30.63085938 C57.86453747 31.90275266 60.05413833 33.17361308 62.24438477 34.44335938 C63.23623779 35.02021484 64.22809082 35.59707031 65.25 36.19140625 C66.14203125 36.70904541 67.0340625 37.22668457 67.953125 37.76000977 C70 39 70 39 71 40 C71.09506052 42.55589888 71.12556761 45.08467972 71.11352539 47.64086914 C71.11367142 48.44080795 71.11381744 49.24074677 71.1139679 50.06492615 C71.11326855 52.72169665 71.10547518 55.37839793 71.09765625 58.03515625 C71.09579215 59.87218691 71.09436821 61.70921806 71.09336853 63.54624939 C71.08954275 68.39109662 71.07971196 73.23591408 71.06866455 78.08074951 C71.05845172 83.02062578 71.05387119 87.96050685 71.04882812 92.90039062 C71.03808974 102.60027353 71.0210126 112.30013429 71 122 C67.6220259 120.67380825 64.48221021 119.24435047 61.32421875 117.453125 C60.42606445 116.94507324 59.52791016 116.43702148 58.60253906 115.91357422 C57.64057617 115.36459473 56.67861328 114.81561523 55.6875 114.25 C54.1730127 113.38979248 54.1730127 113.38979248 52.62792969 112.51220703 C29.00890502 99.06197826 29.00890502 99.06197826 22.44262695 94.84790039 C19.51093388 93.2742542 17.23433484 92.45864314 14.07885742 91.58764648 C8.11354323 89.61557026 3.42872562 87.46051394 0 82 C-3.70057024 69.92729111 -1.85522749 55.65154302 -1.30462646 43.23260498 C-1.10920033 38.36039418 -1.02326952 33.48633942 -0.92773438 28.61132812 C-0.72477887 19.06931354 -0.40116866 9.53559569 0 0 Z " fill="#FAA940" transform="translate(180,251)"/>
<path d="M0 0 C3.93876963 1.93456269 6.37706785 4.95769678 8 9 C8.32794891 13.62492058 7.62984822 17.74002926 4.75 21.4375 C1.18150096 24.76269228 -1.1565628 25.76466759 -5.9375 26.375 C-10.56943602 25.80782416 -13.53577317 23.60682374 -16.64453125 20.1953125 C-19.15650456 16.12692922 -18.73169056 11.60299878 -18 7 C-14.03873976 -0.57040845 -7.80044698 -0.99018368 0 0 Z " fill="#FAAB44" transform="translate(383,346)"/>
<path d="M0 0 C3.17282395 1.66019858 5.37590133 3.75180266 7 7 C7.5880376 12.14112877 8.17453731 17.31516132 4.8125 21.5625 C1.17774362 24.7126222 -1.21045868 25.77154792 -5.9375 26.375 C-10.62059591 25.80155968 -13.42768642 23.46387816 -16.8125 20.3125 C-18.68756341 16.66106073 -19.2415465 13.09208183 -19 9 C-14.72897244 0.45794487 -9.12589535 -1.45064811 0 0 Z " fill="#FAAB45" transform="translate(140,346)"/>
<path d="M0 0 C4.12326498 1.7409341 6.69835882 4.16393137 9 8 C9.62495824 13.6246242 9.15907697 17.14856037 6 22 C2.75953856 24.93666818 0.06485065 25.89954239 -4.3125 26.3125 C-8.75886282 25.93568959 -10.63948122 24.90226622 -14 22 C-17.09705551 17.70408429 -17.41634453 14.2693928 -16.65234375 9.1875 C-15.57124277 5.56225119 -13.69409757 3.62838787 -11 1 C-7.54849768 -0.72575116 -3.7810938 -0.36104194 0 0 Z " fill="#FAAA43" transform="translate(260,135)"/>
<path d="M0 0 C3.51600143 2.47718283 5.22670848 4.94099922 6.75 8.9375 C7.51168274 13.50759646 6.42448451 16.57126924 4.0078125 20.390625 C1.50654435 23.46671875 -1.34880089 24.63330814 -5.203125 25.25 C-10.30693293 25.56168293 -13.28938866 24.33230972 -17.25 20.9375 C-19.97268354 16.51548638 -20.16238256 11.97880025 -19.25 6.9375 C-14.6715862 -0.87108305 -8.54666731 -2.79410278 0 0 Z " fill="#FAAA43" transform="translate(384.25,206.0625)"/>
<path d="M0 0 C4.11639609 1.77753468 6.76553623 4.11037788 9 8 C9.86663694 12.36281334 10.01343418 16.23681514 7.75390625 20.16796875 C5.29162264 23.14604244 3.71792767 24.76069078 0 26 C-4.68953585 26.38438818 -7.06443464 26.45895659 -11.3125 24.375 C-14.40483097 21.6422424 -15.73724492 19.93682468 -17 16 C-17.28767252 11.06598035 -16.7675754 7.94936957 -13.625 4.0625 C-8.97493053 0.40887399 -5.88621558 -0.73866235 0 0 Z " fill="#FAAA43" transform="translate(138,205)"/>
</svg>
